{
	"patcher" : 	{
		"fileversion" : 1,
		"appversion" : 		{
			"major" : 8,
			"minor" : 2,
			"revision" : 1,
			"architecture" : "x64",
			"modernui" : 1
		}
,
		"classnamespace" : "box",
		"rect" : [ 1442.0, 452.0, 1514.0, 944.0 ],
		"bglocked" : 0,
		"openinpresentation" : 1,
		"default_fontsize" : 12.0,
		"default_fontface" : 0,
		"default_fontname" : "Arial",
		"gridonopen" : 1,
		"gridsize" : [ 5.0, 5.0 ],
		"gridsnaponopen" : 1,
		"objectsnaponopen" : 1,
		"statusbarvisible" : 2,
		"toolbarvisible" : 1,
		"lefttoolbarpinned" : 0,
		"toptoolbarpinned" : 0,
		"righttoolbarpinned" : 0,
		"bottomtoolbarpinned" : 0,
		"toolbars_unpinned_last_save" : 0,
		"tallnewobj" : 0,
		"boxanimatetime" : 200,
		"enablehscroll" : 1,
		"enablevscroll" : 1,
		"devicewidth" : 0.0,
		"description" : "",
		"digest" : "",
		"tags" : "",
		"style" : "",
		"subpatcher_template" : "",
		"assistshowspatchername" : 0,
		"boxes" : [ 			{
				"box" : 				{
					"comment" : "",
					"id" : "obj-11",
					"index" : 1,
					"maxclass" : "inlet",
					"numinlets" : 0,
					"numoutlets" : 1,
					"outlettype" : [ "" ],
					"patching_rect" : [ 434.39996337890625, 35.000001043081284, 30.0, 30.0 ]
				}

			}
, 			{
				"box" : 				{
					"comment" : "",
					"id" : "obj-10",
					"index" : 1,
					"maxclass" : "outlet",
					"numinlets" : 1,
					"numoutlets" : 0,
					"patching_rect" : [ 434.39996337890625, 257.000007659196854, 30.0, 30.0 ]
				}

			}
, 			{
				"box" : 				{
					"fontname" : "Arial",
					"fontsize" : 12.0,
					"id" : "obj-9",
					"maxclass" : "newobj",
					"numinlets" : 1,
					"numoutlets" : 3,
					"outlettype" : [ "", "", "" ],
					"patching_rect" : [ 648.266621947288513, 80.228218078613281, 53.0, 22.0 ],
					"restore" : [ 100.0, 0.0, 100.0, 0.0, 0.0, 0, 0.0, 100.0, 100.0, 0, 0.0, "curve" ],
					"saved_object_attributes" : 					{
						"parameter_enable" : 0,
						"parameter_mappable" : 0
					}
,
					"text" : "pattr bpf",
					"varname" : "bpf"
				}

			}
, 			{
				"box" : 				{
					"id" : "obj-22",
					"maxclass" : "newobj",
					"numinlets" : 2,
					"numoutlets" : 1,
					"outlettype" : [ "float" ],
					"patching_rect" : [ 434.39996337890625, 75.858553737401962, 40.0, 22.0 ],
					"text" : "* 100."
				}

			}
, 			{
				"box" : 				{
					"id" : "obj-191",
					"maxclass" : "newobj",
					"numinlets" : 1,
					"numoutlets" : 2,
					"outlettype" : [ "float", "float" ],
					"patching_rect" : [ 293.933278024196625, 174.908088684082031, 61.0, 22.0 ],
					"text" : "unpack f f"
				}

			}
, 			{
				"box" : 				{
					"id" : "obj-190",
					"maxclass" : "message",
					"numinlets" : 2,
					"numoutlets" : 1,
					"outlettype" : [ "" ],
					"patching_rect" : [ 348.133290231227875, 127.133053869009018, 32.0, 22.0 ],
					"text" : "1. 0."
				}

			}
, 			{
				"box" : 				{
					"id" : "obj-189",
					"maxclass" : "message",
					"numinlets" : 2,
					"numoutlets" : 1,
					"outlettype" : [ "" ],
					"patching_rect" : [ 293.933278024196625, 127.133053869009018, 32.0, 22.0 ],
					"text" : "0. 1."
				}

			}
, 			{
				"box" : 				{
					"id" : "obj-187",
					"maxclass" : "newobj",
					"numinlets" : 3,
					"numoutlets" : 3,
					"outlettype" : [ "bang", "bang", "" ],
					"patching_rect" : [ 293.933278024196625, 96.309392064809799, 127.4000244140625, 22.0 ],
					"text" : "sel 0 1"
				}

			}
, 			{
				"box" : 				{
					"id" : "obj-186",
					"maxclass" : "newobj",
					"numinlets" : 6,
					"numoutlets" : 1,
					"outlettype" : [ "" ],
					"patching_rect" : [ 434.39996337890625, 223.133320957422256, 230.0, 22.0 ],
					"text" : "scale 0. 100. 0. 1."
				}

			}
, 			{
				"box" : 				{
					"bgcolor" : [ 0.0, 0.0, 0.0, 1.0 ],
					"bgoncolor" : [ 1.0, 0.0, 0.0, 1.0 ],
					"fontsize" : 10.0,
					"id" : "obj-181",
					"legacytextcolor" : 1,
					"maxclass" : "textbutton",
					"mode" : 1,
					"numinlets" : 1,
					"numoutlets" : 3,
					"outlettype" : [ "", "", "int" ],
					"parameter_enable" : 0,
					"patching_rect" : [ 293.933278024196625, 66.058415502309799, 52.0, 22.205570220947266 ],
					"presentation" : 1,
					"presentation_rect" : [ 5.0, 25.0, 45.000007629394531, 15.0 ],
					"text" : "inv",
					"textcolor" : [ 0.545098039215686, 0.545098039215686, 0.545098039215686, 1.0 ],
					"texton" : "inv",
					"textoncolor" : [ 0.917647, 0.917647, 0.917647, 1.0 ],
					"textovercolor" : [ 0.843137, 0.843137, 0.843137, 1.0 ],
					"truncate" : 0,
					"usebgoncolor" : 1,
					"usetextovercolor" : 1,
					"varname" : "textbutton[1]"
				}

			}
, 			{
				"box" : 				{
					"bgcolor" : [ 0.0, 0.0, 0.0, 1.0 ],
					"bgoncolor" : [ 1.0, 0.0, 0.0, 1.0 ],
					"fontsize" : 10.0,
					"id" : "obj-149",
					"legacytextcolor" : 1,
					"maxclass" : "textbutton",
					"numinlets" : 1,
					"numoutlets" : 3,
					"outlettype" : [ "", "", "int" ],
					"parameter_enable" : 0,
					"patching_rect" : [ 488.233215421438217, 47.228361934423447, 52.0, 22.205570220947266 ],
					"presentation" : 1,
					"presentation_rect" : [ 5.0, 5.0, 45.083053588867188, 15.0 ],
					"text" : "reset",
					"textcolor" : [ 0.545098039215686, 0.545098039215686, 0.545098039215686, 1.0 ],
					"texton" : "close",
					"textoncolor" : [ 0.917647, 0.917647, 0.917647, 1.0 ],
					"textovercolor" : [ 0.843137, 0.843137, 0.843137, 1.0 ],
					"truncate" : 0,
					"usebgoncolor" : 1,
					"usetextovercolor" : 1
				}

			}
, 			{
				"box" : 				{
					"fontname" : "Arial",
					"fontsize" : 12.0,
					"id" : "obj-151",
					"maxclass" : "message",
					"numinlets" : 2,
					"numoutlets" : 1,
					"outlettype" : [ "" ],
					"patching_rect" : [ 488.399963468313217, 75.858553737401962, 113.0, 22.0 ],
					"text" : "clear, 0 0, 100 100,"
				}

			}
, 			{
				"box" : 				{
					"addpoints_with_curve" : [ 0.0, 0.0, 0, 0.0, 100.0, 100.0, 0, 0.0 ],
					"bgcolor" : [ 0.047058823529412, 0.125490196078431, 0.329411764705882, 1.0 ],
					"domain" : 100.0,
					"grid" : 3,
					"gridcolor" : [ 0.501960784313725, 0.501960784313725, 0.501960784313725, 0.83 ],
					"gridstep_x" : 10.0,
					"gridstep_y" : 20.0,
					"id" : "obj-156",
					"legend" : 0,
					"linecolor" : [ 0.847058823529412, 0.847058823529412, 0.847058823529412, 1.0 ],
					"linethickness" : 2.0,
					"maxclass" : "function",
					"mode" : 1,
					"numinlets" : 1,
					"numoutlets" : 4,
					"outlettype" : [ "float", "", "", "bang" ],
					"outputmode" : 1,
					"parameter_enable" : 0,
					"patching_rect" : [ 434.39996337890625, 121.908088684082031, 230.0, 75.0 ],
					"presentation" : 1,
					"presentation_rect" : [ 55.0, 0.0, 183.499984741210938, 55.0 ],
					"range" : [ 0.0, 100.0 ],
					"varname" : "function"
				}

			}
, 			{
				"box" : 				{
					"fontname" : "Arial",
					"fontsize" : 12.0,
					"id" : "obj-26",
					"maxclass" : "newobj",
					"numinlets" : 1,
					"numoutlets" : 3,
					"outlettype" : [ "", "", "" ],
					"patching_rect" : [ 277.933278024196625, 35.000001043081284, 51.0, 22.0 ],
					"restore" : [ 0 ],
					"saved_object_attributes" : 					{
						"parameter_enable" : 0,
						"parameter_mappable" : 0
					}
,
					"text" : "pattr inv",
					"varname" : "inv"
				}

			}
 ],
		"lines" : [ 			{
				"patchline" : 				{
					"destination" : [ "obj-22", 0 ],
					"source" : [ "obj-11", 0 ]
				}

			}
, 			{
				"patchline" : 				{
					"destination" : [ "obj-151", 0 ],
					"source" : [ "obj-149", 0 ]
				}

			}
, 			{
				"patchline" : 				{
					"destination" : [ "obj-156", 0 ],
					"midpoints" : [ 497.899963468313217, 108.0, 443.89996337890625, 108.0 ],
					"source" : [ "obj-151", 0 ]
				}

			}
, 			{
				"patchline" : 				{
					"destination" : [ "obj-186", 0 ],
					"source" : [ "obj-156", 0 ]
				}

			}
, 			{
				"patchline" : 				{
					"destination" : [ "obj-187", 0 ],
					"source" : [ "obj-181", 0 ]
				}

			}
, 			{
				"patchline" : 				{
					"destination" : [ "obj-10", 0 ],
					"source" : [ "obj-186", 0 ]
				}

			}
, 			{
				"patchline" : 				{
					"destination" : [ "obj-189", 0 ],
					"source" : [ "obj-187", 0 ]
				}

			}
, 			{
				"patchline" : 				{
					"destination" : [ "obj-190", 0 ],
					"source" : [ "obj-187", 1 ]
				}

			}
, 			{
				"patchline" : 				{
					"destination" : [ "obj-191", 0 ],
					"midpoints" : [ 303.433278024196625, 150.0, 303.433278024196625, 150.0 ],
					"source" : [ "obj-189", 0 ]
				}

			}
, 			{
				"patchline" : 				{
					"destination" : [ "obj-191", 0 ],
					"midpoints" : [ 357.633290231227875, 159.0, 303.433278024196625, 159.0 ],
					"source" : [ "obj-190", 0 ]
				}

			}
, 			{
				"patchline" : 				{
					"destination" : [ "obj-186", 4 ],
					"midpoints" : [ 345.433278024196625, 210.0, 612.699963378906205, 210.0 ],
					"source" : [ "obj-191", 1 ]
				}

			}
, 			{
				"patchline" : 				{
					"destination" : [ "obj-186", 3 ],
					"midpoints" : [ 303.433278024196625, 210.0, 570.499963378906273, 210.0 ],
					"source" : [ "obj-191", 0 ]
				}

			}
, 			{
				"patchline" : 				{
					"destination" : [ "obj-156", 0 ],
					"midpoints" : [ 443.89996337890625, 99.0, 443.89996337890625, 99.0 ],
					"source" : [ "obj-22", 0 ]
				}

			}
, 			{
				"patchline" : 				{
					"destination" : [ "obj-181", 0 ],
					"source" : [ "obj-26", 1 ]
				}

			}
, 			{
				"patchline" : 				{
					"destination" : [ "obj-156", 0 ],
					"midpoints" : [ 674.766621947288513, 109.33333346247673, 444.0, 109.33333346247673, 444.0, 117.0, 443.89996337890625, 117.0 ],
					"source" : [ "obj-9", 1 ]
				}

			}
 ]
	}

}
