{
	"patcher" : 	{
		"fileversion" : 1,
		"appversion" : 		{
			"major" : 8,
			"minor" : 2,
			"revision" : 1,
			"architecture" : "x64",
			"modernui" : 1
		}
,
		"classnamespace" : "box",
		"rect" : [ 501.0, 361.0, 1092.0, 798.0 ],
		"bglocked" : 0,
		"openinpresentation" : 1,
		"default_fontsize" : 12.0,
		"default_fontface" : 0,
		"default_fontname" : "Arial",
		"gridonopen" : 1,
		"gridsize" : [ 5.0, 5.0 ],
		"gridsnaponopen" : 1,
		"objectsnaponopen" : 1,
		"statusbarvisible" : 2,
		"toolbarvisible" : 1,
		"lefttoolbarpinned" : 0,
		"toptoolbarpinned" : 0,
		"righttoolbarpinned" : 0,
		"bottomtoolbarpinned" : 0,
		"toolbars_unpinned_last_save" : 0,
		"tallnewobj" : 0,
		"boxanimatetime" : 200,
		"enablehscroll" : 1,
		"enablevscroll" : 1,
		"devicewidth" : 0.0,
		"description" : "",
		"digest" : "",
		"tags" : "",
		"style" : "",
		"subpatcher_template" : "",
		"assistshowspatchername" : 0,
		"boxes" : [ 			{
				"box" : 				{
					"fontname" : "Arial",
					"fontsize" : 12.0,
					"id" : "obj-6",
					"maxclass" : "newobj",
					"numinlets" : 1,
					"numoutlets" : 3,
					"outlettype" : [ "", "", "" ],
					"patching_rect" : [ 438.599945068359375, 359.0, 53.0, 22.0 ],
					"restore" : [ 100.0, 0.0, 100.0, 0.0, 0.0, 0, 0.0, 100.0, 100.0, 0, 0.0, "curve" ],
					"saved_object_attributes" : 					{
						"parameter_enable" : 0,
						"parameter_mappable" : 0
					}
,
					"text" : "pattr bpf",
					"varname" : "bpf"
				}

			}
, 			{
				"box" : 				{
					"angle" : 270.0,
					"bgcolor" : [ 0.996078431372549, 0.650980392156863, 0.105882352941176, 1.0 ],
					"bordercolor" : [ 0.996078431372549, 0.650980392156863, 0.105882352941176, 1.0 ],
					"id" : "obj-99",
					"maxclass" : "panel",
					"mode" : 0,
					"numinlets" : 1,
					"numoutlets" : 0,
					"patching_rect" : [ 539.93890380859375, 324.0, 62.0, 19.0 ],
					"presentation" : 1,
					"presentation_rect" : [ 110.0, 5.0, 175.0, 5.0 ],
					"proportion" : 0.39,
					"rounded" : 0
				}

			}
, 			{
				"box" : 				{
					"fontname" : "Arial",
					"fontsize" : 12.0,
					"id" : "obj-4",
					"maxclass" : "newobj",
					"numinlets" : 1,
					"numoutlets" : 0,
					"patching_rect" : [ 239.600006103515625, -20.542144775390625, 81.0, 22.0 ],
					"text" : "s #0-OnOff"
				}

			}
, 			{
				"box" : 				{
					"fontname" : "Arial",
					"fontsize" : 12.0,
					"id" : "obj-13",
					"maxclass" : "newobj",
					"numinlets" : 1,
					"numoutlets" : 3,
					"outlettype" : [ "", "", "" ],
					"patching_rect" : [ 176.600006103515625, -79.723602294921875, 68.0, 22.0 ],
					"restore" : [ 0 ],
					"saved_object_attributes" : 					{
						"parameter_enable" : 0,
						"parameter_mappable" : 0
					}
,
					"text" : "pattr OnOff",
					"varname" : "OnOff"
				}

			}
, 			{
				"box" : 				{
					"bgcolor" : [ 0.482543, 0.037746, 0.034454, 1.0 ],
					"bgoncolor" : [ 1.0, 0.0, 0.0, 1.0 ],
					"fontface" : 1,
					"fontsize" : 10.0,
					"id" : "obj-2",
					"legacytextcolor" : 1,
					"maxclass" : "textbutton",
					"mode" : 1,
					"numinlets" : 1,
					"numoutlets" : 3,
					"outlettype" : [ "", "", "int" ],
					"parameter_enable" : 0,
					"patching_rect" : [ 201.600006103515625, -53.608123779296875, 57.0, 20.0 ],
					"presentation" : 1,
					"presentation_rect" : [ 5.0, 15.0, 50.0, 44.5 ],
					"rounded" : 2.0,
					"text" : "OFF",
					"textcolor" : [ 1.0, 1.0, 1.0, 1.0 ],
					"texton" : "ON",
					"textoncolor" : [ 1.0, 1.0, 1.0, 1.0 ],
					"textovercolor" : [ 0.843137, 0.843137, 0.843137, 1.0 ],
					"usebgoncolor" : 1,
					"usetextovercolor" : 1,
					"varname" : "textbutton[4]"
				}

			}
, 			{
				"box" : 				{
					"id" : "obj-1",
					"maxclass" : "newobj",
					"numinlets" : 2,
					"numoutlets" : 1,
					"outlettype" : [ "" ],
					"patching_rect" : [ 201.600006103515625, 23.0, 52.0, 22.0 ],
					"text" : "gate 1 0"
				}

			}
, 			{
				"box" : 				{
					"args" : [ "#1" ],
					"bgmode" : 0,
					"border" : 0,
					"clickthrough" : 0,
					"enablehscroll" : 0,
					"enablevscroll" : 0,
					"id" : "obj-41",
					"lockeddragscroll" : 0,
					"lockedsize" : 0,
					"maxclass" : "bpatcher",
					"name" : "st-cont.out.maxpat",
					"numinlets" : 1,
					"numoutlets" : 0,
					"offset" : [ 0.0, 0.0 ],
					"patching_rect" : [ 272.5833740234375, 685.0, 165.0, 66.0 ],
					"presentation" : 1,
					"presentation_rect" : [ 540.0, 0.0, 370.0, 60.0 ],
					"varname" : "st-cont.out[1]",
					"viewvisibility" : 1
				}

			}
, 			{
				"box" : 				{
					"bgcolor" : [ 0.047058823529412, 0.125490196078431, 0.329411764705882, 1.0 ],
					"contdata" : 1,
					"ghostbar" : 100,
					"id" : "obj-89",
					"maxclass" : "multislider",
					"numinlets" : 1,
					"numoutlets" : 2,
					"outlettype" : [ "", "" ],
					"parameter_enable" : 0,
					"patching_rect" : [ 272.5833740234375, 614.0, 129.51904296875, 23.37556266784668 ],
					"presentation" : 1,
					"presentation_rect" : [ 530.0, 5.0, 10.0, 55.0 ],
					"setminmax" : [ 0.0, 1.0 ],
					"slidercolor" : [ 0.525490196078431, 0.686274509803922, 0.929411764705882, 1.0 ],
					"varname" : "multislider"
				}

			}
, 			{
				"box" : 				{
					"id" : "obj-35",
					"maxclass" : "message",
					"numinlets" : 2,
					"numoutlets" : 1,
					"outlettype" : [ "" ],
					"patching_rect" : [ 346.75, 91.891883850097656, 29.5, 22.0 ],
					"text" : "0"
				}

			}
, 			{
				"box" : 				{
					"angle" : 270.0,
					"bgcolor" : [ 0.694117647058824, 0.694117647058824, 0.694117647058824, 1.0 ],
					"bordercolor" : [ 0.996078431372549, 0.650980392156863, 0.105882352941176, 1.0 ],
					"id" : "obj-33",
					"maxclass" : "panel",
					"mode" : 0,
					"numinlets" : 1,
					"numoutlets" : 0,
					"patching_rect" : [ 404.0, -19.5, 62.0, 19.0 ],
					"presentation" : 1,
					"presentation_rect" : [ 5.0, 4.999999523162842, 100.0, 5.000000476837158 ],
					"proportion" : 0.39,
					"rounded" : 0
				}

			}
, 			{
				"box" : 				{
					"id" : "obj-27",
					"maxclass" : "comment",
					"numinlets" : 1,
					"numoutlets" : 0,
					"patching_rect" : [ 480.866626739501953, 23.0, 45.599998474121094, 20.0 ],
					"presentation" : 1,
					"presentation_rect" : [ 60.0, 10.0, 45.0, 20.0 ],
					"text" : "source",
					"textcolor" : [ 0.694117665290833, 0.694117665290833, 0.694117665290833, 1.0 ]
				}

			}
, 			{
				"box" : 				{
					"id" : "obj-12",
					"maxclass" : "newobj",
					"numinlets" : 2,
					"numoutlets" : 2,
					"outlettype" : [ "", "" ],
					"patching_rect" : [ 31.0, -27.0, 105.0, 22.0 ],
					"text" : "route X"
				}

			}
, 			{
				"box" : 				{
					"fontname" : "Arial",
					"fontsize" : 12.0,
					"id" : "obj-3",
					"maxclass" : "newobj",
					"numinlets" : 1,
					"numoutlets" : 3,
					"outlettype" : [ "", "", "" ],
					"patching_rect" : [ 83.5, -79.20001220703125, 86.0, 22.0 ],
					"restore" : [ 1 ],
					"saved_object_attributes" : 					{
						"parameter_enable" : 0,
						"parameter_mappable" : 0
					}
,
					"text" : "pattr dest-path",
					"varname" : "dest-path[1]"
				}

			}
, 			{
				"box" : 				{
					"bgcolor" : [ 0.058823529411765, 0.168627450980392, 0.474509803921569, 1.0 ],
					"fontface" : 1,
					"id" : "obj-5",
					"maxclass" : "number",
					"maximum" : 256,
					"minimum" : 1,
					"numinlets" : 1,
					"numoutlets" : 2,
					"outlettype" : [ "", "bang" ],
					"parameter_enable" : 0,
					"patching_rect" : [ 117.0, -54.608123779296875, 50.0, 22.0 ],
					"presentation" : 1,
					"presentation_rect" : [ 60.0, 35.000000953674316, 45.0, 22.0 ],
					"textcolor" : [ 0.968627450980392, 0.968627450980392, 0.968627450980392, 0.82 ],
					"triangle" : 0,
					"varname" : "number[2]"
				}

			}
, 			{
				"box" : 				{
					"id" : "obj-25",
					"maxclass" : "newobj",
					"numinlets" : 2,
					"numoutlets" : 2,
					"outlettype" : [ "bang", "" ],
					"patching_rect" : [ 344.5, 64.108123779296875, 34.0, 22.0 ],
					"text" : "sel 0"
				}

			}
, 			{
				"box" : 				{
					"fontname" : "Arial",
					"fontsize" : 12.0,
					"id" : "obj-24",
					"maxclass" : "newobj",
					"numinlets" : 0,
					"numoutlets" : 1,
					"outlettype" : [ "" ],
					"patching_rect" : [ 344.5, 39.0, 79.0, 22.0 ],
					"text" : "r #0-OnOff"
				}

			}
, 			{
				"box" : 				{
					"id" : "obj-211",
					"maxclass" : "newobj",
					"numinlets" : 2,
					"numoutlets" : 1,
					"outlettype" : [ "int" ],
					"patching_rect" : [ 135.0, 234.0, 29.5, 22.0 ],
					"text" : "!- 1"
				}

			}
, 			{
				"box" : 				{
					"id" : "obj-210",
					"maxclass" : "newobj",
					"numinlets" : 2,
					"numoutlets" : 1,
					"outlettype" : [ "" ],
					"patching_rect" : [ 135.0, 264.0, 54.0, 22.0 ],
					"text" : "gate 1 0"
				}

			}
, 			{
				"box" : 				{
					"id" : "obj-209",
					"maxclass" : "message",
					"numinlets" : 2,
					"numoutlets" : 1,
					"outlettype" : [ "" ],
					"patching_rect" : [ 170.0, 234.0, 35.0, 22.0 ],
					"text" : "set 0"
				}

			}
, 			{
				"box" : 				{
					"id" : "obj-207",
					"maxclass" : "message",
					"numinlets" : 2,
					"numoutlets" : 1,
					"outlettype" : [ "" ],
					"patching_rect" : [ 201.600006103515625, 52.0, 29.5, 22.0 ],
					"text" : "1"
				}

			}
, 			{
				"box" : 				{
					"fontname" : "Arial",
					"fontsize" : 12.0,
					"id" : "obj-196",
					"maxclass" : "newobj",
					"numinlets" : 1,
					"numoutlets" : 3,
					"outlettype" : [ "", "", "" ],
					"patching_rect" : [ 443.43328857421875, 198.891876220703125, 59.0, 22.0 ],
					"restore" : [ 0 ],
					"saved_object_attributes" : 					{
						"parameter_enable" : 0,
						"parameter_mappable" : 0
					}
,
					"text" : "pattr loop",
					"varname" : "loop"
				}

			}
, 			{
				"box" : 				{
					"bgcolor" : [ 0.0, 0.0, 0.0, 1.0 ],
					"bgoncolor" : [ 1.0, 0.0, 0.0, 1.0 ],
					"fontsize" : 10.0,
					"id" : "obj-192",
					"legacytextcolor" : 1,
					"maxclass" : "textbutton",
					"mode" : 1,
					"numinlets" : 1,
					"numoutlets" : 3,
					"outlettype" : [ "", "", "int" ],
					"parameter_enable" : 0,
					"patching_rect" : [ 463.43328857421875, 227.920120239257812, 52.0, 22.205570220947266 ],
					"presentation" : 1,
					"presentation_rect" : [ 290.0, 44.999999046325684, 45.000007629394531, 15.0 ],
					"text" : "loop",
					"textcolor" : [ 0.545098039215686, 0.545098039215686, 0.545098039215686, 1.0 ],
					"texton" : "loop",
					"textoncolor" : [ 0.917647, 0.917647, 0.917647, 1.0 ],
					"textovercolor" : [ 0.843137, 0.843137, 0.843137, 1.0 ],
					"truncate" : 0,
					"usebgoncolor" : 1,
					"usetextovercolor" : 1,
					"varname" : "textbutton[3]"
				}

			}
, 			{
				"box" : 				{
					"id" : "obj-191",
					"maxclass" : "newobj",
					"numinlets" : 1,
					"numoutlets" : 2,
					"outlettype" : [ "float", "float" ],
					"patching_rect" : [ 144.599945068359375, 454.4100341796875, 61.0, 22.0 ],
					"text" : "unpack f f"
				}

			}
, 			{
				"box" : 				{
					"id" : "obj-190",
					"maxclass" : "message",
					"numinlets" : 2,
					"numoutlets" : 1,
					"outlettype" : [ "" ],
					"patching_rect" : [ 183.799957275390625, 422.50286865234375, 32.0, 22.0 ],
					"text" : "1. 0."
				}

			}
, 			{
				"box" : 				{
					"id" : "obj-189",
					"maxclass" : "message",
					"numinlets" : 2,
					"numoutlets" : 1,
					"outlettype" : [ "" ],
					"patching_rect" : [ 144.599945068359375, 422.50286865234375, 32.0, 22.0 ],
					"text" : "0. 1."
				}

			}
, 			{
				"box" : 				{
					"id" : "obj-187",
					"maxclass" : "newobj",
					"numinlets" : 3,
					"numoutlets" : 3,
					"outlettype" : [ "bang", "bang", "" ],
					"patching_rect" : [ 144.599945068359375, 391.67919921875, 44.0, 22.0 ],
					"text" : "sel 0 1"
				}

			}
, 			{
				"box" : 				{
					"id" : "obj-186",
					"maxclass" : "newobj",
					"numinlets" : 6,
					"numoutlets" : 1,
					"outlettype" : [ "" ],
					"patching_rect" : [ 272.39996337890625, 510.0, 103.0, 22.0 ],
					"text" : "scale 0. 100. 0. 1."
				}

			}
, 			{
				"box" : 				{
					"bgcolor" : [ 0.0, 0.0, 0.0, 1.0 ],
					"bgoncolor" : [ 1.0, 0.0, 0.0, 1.0 ],
					"fontsize" : 10.0,
					"id" : "obj-181",
					"legacytextcolor" : 1,
					"maxclass" : "textbutton",
					"mode" : 1,
					"numinlets" : 1,
					"numoutlets" : 3,
					"outlettype" : [ "", "", "int" ],
					"parameter_enable" : 0,
					"patching_rect" : [ 144.599945068359375, 361.42822265625, 52.0, 22.205570220947266 ],
					"presentation" : 1,
					"presentation_rect" : [ 290.0, 24.999999046325684, 45.000007629394531, 15.0 ],
					"text" : "inv",
					"textcolor" : [ 0.545098039215686, 0.545098039215686, 0.545098039215686, 1.0 ],
					"texton" : "inv",
					"textoncolor" : [ 0.917647, 0.917647, 0.917647, 1.0 ],
					"textovercolor" : [ 0.843137, 0.843137, 0.843137, 1.0 ],
					"truncate" : 0,
					"usebgoncolor" : 1,
					"usetextovercolor" : 1,
					"varname" : "textbutton[1]"
				}

			}
, 			{
				"box" : 				{
					"id" : "obj-179",
					"maxclass" : "newobj",
					"numinlets" : 2,
					"numoutlets" : 1,
					"outlettype" : [ "int" ],
					"patching_rect" : [ 387.81658935546875, 542.0927734375, 29.5, 22.0 ],
					"text" : "> 0"
				}

			}
, 			{
				"box" : 				{
					"bgcolor" : [ 0.0, 0.0, 0.0, 1.0 ],
					"bgoncolor" : [ 1.0, 0.0, 0.0, 1.0 ],
					"fontsize" : 10.0,
					"id" : "obj-149",
					"legacytextcolor" : 1,
					"maxclass" : "textbutton",
					"numinlets" : 1,
					"numoutlets" : 3,
					"outlettype" : [ "", "", "int" ],
					"parameter_enable" : 0,
					"patching_rect" : [ 299.833251953125, 330.36981201171875, 52.0, 22.205570220947266 ],
					"presentation" : 1,
					"presentation_rect" : [ 290.0, 4.999999046325684, 45.083053588867188, 15.0 ],
					"text" : "reset",
					"textcolor" : [ 0.545098039215686, 0.545098039215686, 0.545098039215686, 1.0 ],
					"texton" : "close",
					"textoncolor" : [ 0.917647, 0.917647, 0.917647, 1.0 ],
					"textovercolor" : [ 0.843137, 0.843137, 0.843137, 1.0 ],
					"truncate" : 0,
					"usebgoncolor" : 1,
					"usetextovercolor" : 1
				}

			}
, 			{
				"box" : 				{
					"fontname" : "Arial",
					"fontsize" : 12.0,
					"id" : "obj-151",
					"maxclass" : "message",
					"numinlets" : 2,
					"numoutlets" : 1,
					"outlettype" : [ "" ],
					"patching_rect" : [ 300.0, 359.0, 113.0, 22.0 ],
					"text" : "clear, 0 0, 100 100,"
				}

			}
, 			{
				"box" : 				{
					"addpoints_with_curve" : [ 0.0, 0.0, 0, 0.0, 100.0, 100.0, 0, 0.0 ],
					"bgcolor" : [ 0.047058823529412, 0.125490196078431, 0.329411764705882, 1.0 ],
					"domain" : 100.0,
					"grid" : 3,
					"gridcolor" : [ 0.501960784313725, 0.501960784313725, 0.501960784313725, 0.83 ],
					"gridstep_x" : 10.0,
					"gridstep_y" : 20.0,
					"id" : "obj-156",
					"legend" : 0,
					"linecolor" : [ 0.847058823529412, 0.847058823529412, 0.847058823529412, 1.0 ],
					"linethickness" : 2.0,
					"maxclass" : "function",
					"mode" : 1,
					"numinlets" : 1,
					"numoutlets" : 4,
					"outlettype" : [ "float", "", "", "bang" ],
					"outputmode" : 1,
					"parameter_enable" : 0,
					"patching_rect" : [ 272.39996337890625, 403.10809326171875, 230.0, 75.0 ],
					"presentation" : 1,
					"presentation_rect" : [ 340.0, 5.0, 183.499984741210938, 55.0 ],
					"range" : [ 0.0, 100.0 ],
					"varname" : "function"
				}

			}
, 			{
				"box" : 				{
					"fontname" : "Arial",
					"fontsize" : 12.0,
					"id" : "obj-146",
					"maxclass" : "newobj",
					"numinlets" : 1,
					"numoutlets" : 1,
					"outlettype" : [ "" ],
					"patcher" : 					{
						"fileversion" : 1,
						"appversion" : 						{
							"major" : 8,
							"minor" : 2,
							"revision" : 1,
							"architecture" : "x64",
							"modernui" : 1
						}
,
						"classnamespace" : "box",
						"rect" : [ 25.0, 69.0, 640.0, 480.0 ],
						"bglocked" : 0,
						"openinpresentation" : 0,
						"default_fontsize" : 12.0,
						"default_fontface" : 0,
						"default_fontname" : "Arial",
						"gridonopen" : 1,
						"gridsize" : [ 15.0, 15.0 ],
						"gridsnaponopen" : 1,
						"objectsnaponopen" : 1,
						"statusbarvisible" : 2,
						"toolbarvisible" : 1,
						"lefttoolbarpinned" : 0,
						"toptoolbarpinned" : 0,
						"righttoolbarpinned" : 0,
						"bottomtoolbarpinned" : 0,
						"toolbars_unpinned_last_save" : 0,
						"tallnewobj" : 0,
						"boxanimatetime" : 200,
						"enablehscroll" : 1,
						"enablevscroll" : 1,
						"devicewidth" : 0.0,
						"description" : "",
						"digest" : "",
						"tags" : "",
						"style" : "",
						"subpatcher_template" : "",
						"assistshowspatchername" : 0,
						"boxes" : [ 							{
								"box" : 								{
									"fontname" : "Arial",
									"fontsize" : 12.0,
									"id" : "obj-31",
									"maxclass" : "message",
									"numinlets" : 2,
									"numoutlets" : 1,
									"outlettype" : [ "" ],
									"patching_rect" : [ 85.000015000000005, 164.844970999999987, 266.0, 18.0 ],
									"text" : "bgoncolor 0.5 0. 0. 1., bgoveroncolor 0.5 0. 0. 1."
								}

							}
, 							{
								"box" : 								{
									"fontname" : "Arial",
									"fontsize" : 12.0,
									"id" : "obj-21",
									"maxclass" : "message",
									"numinlets" : 2,
									"numoutlets" : 1,
									"outlettype" : [ "" ],
									"patching_rect" : [ 50.0, 189.819275000000005, 253.0, 18.0 ],
									"text" : "bgoncolor 1. 0. 0. 1., bgoveroncolor 1. 0. 0. 1."
								}

							}
, 							{
								"box" : 								{
									"fontname" : "Arial",
									"fontsize" : 12.0,
									"id" : "obj-19",
									"maxclass" : "newobj",
									"numinlets" : 1,
									"numoutlets" : 2,
									"outlettype" : [ "bang", "bang" ],
									"patching_rect" : [ 50.0, 129.51379399999999, 54.0, 20.0 ],
									"text" : "togedge"
								}

							}
, 							{
								"box" : 								{
									"fontname" : "Arial",
									"fontsize" : 12.0,
									"id" : "obj-18",
									"maxclass" : "newobj",
									"numinlets" : 2,
									"numoutlets" : 1,
									"outlettype" : [ "bang" ],
									"patching_rect" : [ 50.0, 100.0, 65.0, 20.0 ],
									"text" : "metro 150"
								}

							}
, 							{
								"box" : 								{
									"comment" : "",
									"id" : "obj-32",
									"index" : 1,
									"maxclass" : "inlet",
									"numinlets" : 0,
									"numoutlets" : 1,
									"outlettype" : [ "" ],
									"patching_rect" : [ 50.0, 40.0, 25.0, 25.0 ]
								}

							}
, 							{
								"box" : 								{
									"comment" : "",
									"id" : "obj-34",
									"index" : 1,
									"maxclass" : "outlet",
									"numinlets" : 1,
									"numoutlets" : 0,
									"patching_rect" : [ 62.500014999999998, 267.819275000000005, 25.0, 25.0 ]
								}

							}
 ],
						"lines" : [ 							{
								"patchline" : 								{
									"destination" : [ "obj-19", 0 ],
									"source" : [ "obj-18", 0 ]
								}

							}
, 							{
								"patchline" : 								{
									"destination" : [ "obj-21", 0 ],
									"source" : [ "obj-19", 0 ]
								}

							}
, 							{
								"patchline" : 								{
									"destination" : [ "obj-31", 0 ],
									"source" : [ "obj-19", 1 ]
								}

							}
, 							{
								"patchline" : 								{
									"destination" : [ "obj-34", 0 ],
									"source" : [ "obj-21", 0 ]
								}

							}
, 							{
								"patchline" : 								{
									"destination" : [ "obj-34", 0 ],
									"source" : [ "obj-31", 0 ]
								}

							}
, 							{
								"patchline" : 								{
									"destination" : [ "obj-18", 0 ],
									"source" : [ "obj-32", 0 ]
								}

							}
 ]
					}
,
					"patching_rect" : [ 1877.2794189453125, -70.0, 89.0, 22.0 ],
					"saved_object_attributes" : 					{
						"description" : "",
						"digest" : "",
						"globalpatchername" : "",
						"tags" : ""
					}
,
					"text" : "p clignotement"
				}

			}
, 			{
				"box" : 				{
					"bgcolor" : [ 0.225067, 0.457277, 0.835651, 1.0 ],
					"bgoncolor" : [ 0.5, 0.0, 0.0, 1.0 ],
					"fontface" : 1,
					"fontsize" : 10.0,
					"id" : "obj-147",
					"legacytextcolor" : 1,
					"maxclass" : "textbutton",
					"mode" : 1,
					"numinlets" : 1,
					"numoutlets" : 3,
					"outlettype" : [ "", "", "int" ],
					"parameter_enable" : 0,
					"patching_rect" : [ 1792.674072265625, -70.0, 57.0, 20.0 ],
					"rounded" : 2.0,
					"text" : "learn",
					"textcolor" : [ 1.0, 1.0, 1.0, 1.0 ],
					"texton" : "learn",
					"textoncolor" : [ 1.0, 1.0, 1.0, 1.0 ],
					"textovercolor" : [ 0.843137, 0.843137, 0.843137, 1.0 ],
					"usebgoncolor" : 1,
					"usetextovercolor" : 1
				}

			}
, 			{
				"box" : 				{
					"fontname" : "Arial",
					"fontsize" : 12.0,
					"id" : "obj-148",
					"maxclass" : "comment",
					"numinlets" : 1,
					"numoutlets" : 0,
					"patching_rect" : [ 1792.674072265625, -98.0, 70.0, 20.0 ],
					"text" : "get param"
				}

			}
, 			{
				"box" : 				{
					"bgcolor" : [ 0.189279, 0.470757, 0.713942, 1.0 ],
					"bgoncolor" : [ 1.0, 0.54376, 0.03934, 1.0 ],
					"fontsize" : 9.0,
					"id" : "obj-145",
					"legacytextcolor" : 1,
					"maxclass" : "textbutton",
					"numinlets" : 1,
					"numoutlets" : 3,
					"outlettype" : [ "", "", "int" ],
					"parameter_enable" : 0,
					"patching_rect" : [ 1740.4000244140625, -73.0, 33.75, 20.0 ],
					"rounded" : 2.0,
					"text" : "paste",
					"textcolor" : [ 1.0, 1.0, 1.0, 1.0 ],
					"texton" : "S",
					"textoncolor" : [ 1.0, 1.0, 1.0, 1.0 ],
					"textovercolor" : [ 0.843137, 0.843137, 0.843137, 1.0 ],
					"usebgoncolor" : 1,
					"usetextovercolor" : 1
				}

			}
, 			{
				"box" : 				{
					"bgcolor" : [ 0.189279, 0.470757, 0.713942, 1.0 ],
					"bgoncolor" : [ 1.0, 0.54376, 0.03934, 1.0 ],
					"fontsize" : 9.0,
					"id" : "obj-144",
					"legacytextcolor" : 1,
					"maxclass" : "textbutton",
					"numinlets" : 1,
					"numoutlets" : 3,
					"outlettype" : [ "", "", "int" ],
					"parameter_enable" : 0,
					"patching_rect" : [ 1694.4000244140625, -73.0, 33.75, 20.0 ],
					"rounded" : 2.0,
					"text" : "copy",
					"textcolor" : [ 1.0, 1.0, 1.0, 1.0 ],
					"texton" : "S",
					"textoncolor" : [ 1.0, 1.0, 1.0, 1.0 ],
					"textovercolor" : [ 0.843137, 0.843137, 0.843137, 1.0 ],
					"usebgoncolor" : 1,
					"usetextovercolor" : 1
				}

			}
, 			{
				"box" : 				{
					"fontname" : "Arial",
					"fontsize" : 12.0,
					"id" : "obj-104",
					"maxclass" : "newobj",
					"numinlets" : 1,
					"numoutlets" : 3,
					"outlettype" : [ "", "", "" ],
					"patching_rect" : [ 195.83331298828125, 570.0, 58.0, 22.0 ],
					"restore" : [ 0.0 ],
					"saved_object_attributes" : 					{
						"parameter_enable" : 0,
						"parameter_mappable" : 0
					}
,
					"text" : "pattr posi",
					"varname" : "posi"
				}

			}
, 			{
				"box" : 				{
					"fontname" : "Arial",
					"fontsize" : 12.0,
					"id" : "obj-10",
					"maxclass" : "newobj",
					"numinlets" : 1,
					"numoutlets" : 3,
					"outlettype" : [ "", "", "" ],
					"patching_rect" : [ 362.50006103515625, 155.180015563964844, 99.0, 22.0 ],
					"restore" : [ 1000 ],
					"saved_object_attributes" : 					{
						"parameter_enable" : 0,
						"parameter_mappable" : 0
					}
,
					"text" : "pattr Loop-lenght",
					"varname" : "Loop-lenght"
				}

			}
, 			{
				"box" : 				{
					"fontname" : "Arial",
					"fontsize" : 12.0,
					"id" : "obj-26",
					"maxclass" : "newobj",
					"numinlets" : 1,
					"numoutlets" : 3,
					"outlettype" : [ "", "", "" ],
					"patching_rect" : [ 128.599945068359375, 330.36981201171875, 51.0, 22.0 ],
					"restore" : [ 0 ],
					"saved_object_attributes" : 					{
						"parameter_enable" : 0,
						"parameter_mappable" : 0
					}
,
					"text" : "pattr inv",
					"varname" : "inv"
				}

			}
, 			{
				"box" : 				{
					"id" : "obj-128",
					"maxclass" : "message",
					"numinlets" : 2,
					"numoutlets" : 1,
					"outlettype" : [ "" ],
					"patching_rect" : [ 215.33331298828125, 148.891914367675781, 33.0, 22.0 ],
					"text" : "stop"
				}

			}
, 			{
				"box" : 				{
					"id" : "obj-126",
					"maxclass" : "newobj",
					"numinlets" : 3,
					"numoutlets" : 3,
					"outlettype" : [ "bang", "bang", "" ],
					"patching_rect" : [ 201.83331298828125, 116.891876220703125, 46.0, 22.0 ],
					"text" : "sel 1 0"
				}

			}
, 			{
				"box" : 				{
					"id" : "obj-123",
					"maxclass" : "newobj",
					"numinlets" : 1,
					"numoutlets" : 2,
					"outlettype" : [ "bang", "int" ],
					"patching_rect" : [ 270.0, 155.180015563964844, 77.0, 22.0 ],
					"text" : "t b 0"
				}

			}
, 			{
				"box" : 				{
					"id" : "obj-113",
					"maxclass" : "newobj",
					"numinlets" : 2,
					"numoutlets" : 1,
					"outlettype" : [ "" ],
					"patching_rect" : [ 463.20001220703125, 269.891876220703125, 54.0, 22.0 ],
					"text" : "gate 1 0"
				}

			}
, 			{
				"box" : 				{
					"id" : "obj-100",
					"maxclass" : "newobj",
					"numinlets" : 2,
					"numoutlets" : 1,
					"outlettype" : [ "" ],
					"patching_rect" : [ 270.0, 235.199981689453125, 83.0, 22.0 ],
					"text" : "pack 100 250"
				}

			}
, 			{
				"box" : 				{
					"id" : "obj-97",
					"maxclass" : "newobj",
					"numinlets" : 3,
					"numoutlets" : 2,
					"outlettype" : [ "", "bang" ],
					"patching_rect" : [ 270.0, 289.0, 63.0, 22.0 ],
					"text" : "line 0. 16."
				}

			}
, 			{
				"box" : 				{
					"id" : "obj-63",
					"maxclass" : "newobj",
					"numinlets" : 3,
					"numoutlets" : 1,
					"outlettype" : [ "" ],
					"patcher" : 					{
						"fileversion" : 1,
						"appversion" : 						{
							"major" : 8,
							"minor" : 2,
							"revision" : 1,
							"architecture" : "x64",
							"modernui" : 1
						}
,
						"classnamespace" : "box",
						"rect" : [ 34.0, 58.0, 2492.0, 1348.0 ],
						"bglocked" : 0,
						"openinpresentation" : 0,
						"default_fontsize" : 12.0,
						"default_fontface" : 0,
						"default_fontname" : "Arial",
						"gridonopen" : 1,
						"gridsize" : [ 15.0, 15.0 ],
						"gridsnaponopen" : 1,
						"objectsnaponopen" : 1,
						"statusbarvisible" : 2,
						"toolbarvisible" : 1,
						"lefttoolbarpinned" : 0,
						"toptoolbarpinned" : 0,
						"righttoolbarpinned" : 0,
						"bottomtoolbarpinned" : 0,
						"toolbars_unpinned_last_save" : 0,
						"tallnewobj" : 0,
						"boxanimatetime" : 200,
						"enablehscroll" : 1,
						"enablevscroll" : 1,
						"devicewidth" : 0.0,
						"description" : "",
						"digest" : "",
						"tags" : "",
						"style" : "",
						"subpatcher_template" : "",
						"assistshowspatchername" : 0,
						"boxes" : [ 							{
								"box" : 								{
									"comment" : "",
									"id" : "obj-1",
									"index" : 1,
									"maxclass" : "inlet",
									"numinlets" : 0,
									"numoutlets" : 1,
									"outlettype" : [ "" ],
									"patching_rect" : [ 92.5, 40.0, 30.0, 30.0 ]
								}

							}
, 							{
								"box" : 								{
									"fontname" : "Arial",
									"fontsize" : 12.0,
									"id" : "obj-49",
									"maxclass" : "newobj",
									"numinlets" : 2,
									"numoutlets" : 1,
									"outlettype" : [ "int" ],
									"patching_rect" : [ 50.0, 100.0, 32.5, 22.0 ],
									"text" : "+ 1"
								}

							}
, 							{
								"box" : 								{
									"fontname" : "Arial",
									"fontsize" : 12.0,
									"id" : "obj-42",
									"maxclass" : "newobj",
									"numinlets" : 2,
									"numoutlets" : 1,
									"outlettype" : [ "" ],
									"patching_rect" : [ 193.849547999999999, 174.002869000000004, 54.0, 22.0 ],
									"text" : "gate 1 0"
								}

							}
, 							{
								"box" : 								{
									"fontname" : "Arial",
									"fontsize" : 12.0,
									"id" : "obj-40",
									"maxclass" : "newobj",
									"numinlets" : 0,
									"numoutlets" : 1,
									"outlettype" : [ "" ],
									"patching_rect" : [ 228.849547999999999, 146.002869000000004, 55.0, 22.0 ],
									"text" : "r qmetro"
								}

							}
, 							{
								"box" : 								{
									"fontname" : "Arial",
									"fontsize" : 12.0,
									"id" : "obj-304",
									"maxclass" : "message",
									"numinlets" : 2,
									"numoutlets" : 1,
									"outlettype" : [ "" ],
									"patching_rect" : [ 391.277710000000013, 216.0, 155.0, 22.0 ],
									"text" : "slide_down $1, slide_up $1"
								}

							}
, 							{
								"box" : 								{
									"fontname" : "Arial",
									"fontsize" : 12.0,
									"id" : "obj-36",
									"maxclass" : "message",
									"numinlets" : 2,
									"numoutlets" : 1,
									"outlettype" : [ "" ],
									"patching_rect" : [ 92.5, 174.002869000000004, 90.0, 22.0 ],
									"text" : "setcell 0 val $1"
								}

							}
, 							{
								"box" : 								{
									"fontname" : "Arial",
									"fontsize" : 12.0,
									"id" : "obj-37",
									"maxclass" : "newobj",
									"numinlets" : 1,
									"numoutlets" : 3,
									"outlettype" : [ "", "", "" ],
									"patching_rect" : [ 193.849547999999999, 277.721435999999983, 46.0, 22.0 ],
									"text" : "jit.iter"
								}

							}
, 							{
								"box" : 								{
									"fontname" : "Arial",
									"fontsize" : 12.0,
									"id" : "obj-307",
									"maxclass" : "newobj",
									"numinlets" : 1,
									"numoutlets" : 2,
									"outlettype" : [ "jit_matrix", "" ],
									"patching_rect" : [ 193.849547999999999, 251.0, 203.0, 22.0 ],
									"text" : "jit.slide @slide_down 2 @slide_up 2"
								}

							}
, 							{
								"box" : 								{
									"fontname" : "Arial",
									"fontsize" : 12.0,
									"id" : "obj-308",
									"maxclass" : "newobj",
									"numinlets" : 1,
									"numoutlets" : 2,
									"outlettype" : [ "jit_matrix", "" ],
									"patching_rect" : [ 193.849547999999999, 216.0, 115.0, 22.0 ],
									"text" : "jit.matrix 1 float32 1"
								}

							}
, 							{
								"box" : 								{
									"fontname" : "Arial",
									"fontsize" : 12.0,
									"id" : "obj-26",
									"maxclass" : "newobj",
									"numinlets" : 2,
									"numoutlets" : 2,
									"outlettype" : [ "", "" ],
									"patching_rect" : [ 67.5, 146.002869000000004, 44.0, 22.0 ],
									"text" : "gate 2"
								}

							}
, 							{
								"box" : 								{
									"fontname" : "Arial",
									"fontsize" : 12.0,
									"id" : "obj-13",
									"maxclass" : "newobj",
									"numinlets" : 3,
									"numoutlets" : 1,
									"outlettype" : [ "" ],
									"patching_rect" : [ 50.166626000000001, 329.440063000000009, 54.0, 22.0 ],
									"text" : "switch 2"
								}

							}
, 							{
								"box" : 								{
									"comment" : "",
									"id" : "obj-33",
									"index" : 2,
									"maxclass" : "inlet",
									"numinlets" : 0,
									"numoutlets" : 1,
									"outlettype" : [ "int" ],
									"patching_rect" : [ 193.849547999999999, 33.0, 30.0, 30.0 ]
								}

							}
, 							{
								"box" : 								{
									"comment" : "",
									"id" : "obj-50",
									"index" : 3,
									"maxclass" : "inlet",
									"numinlets" : 0,
									"numoutlets" : 1,
									"outlettype" : [ "" ],
									"patching_rect" : [ 391.277710000000013, 40.0, 30.0, 30.0 ]
								}

							}
, 							{
								"box" : 								{
									"comment" : "",
									"id" : "obj-53",
									"index" : 1,
									"maxclass" : "outlet",
									"numinlets" : 1,
									"numoutlets" : 0,
									"patching_rect" : [ 50.1666259765625, 411.4400634765625, 30.0, 30.0 ]
								}

							}
 ],
						"lines" : [ 							{
								"patchline" : 								{
									"destination" : [ "obj-26", 1 ],
									"source" : [ "obj-1", 0 ]
								}

							}
, 							{
								"patchline" : 								{
									"destination" : [ "obj-53", 0 ],
									"source" : [ "obj-13", 0 ]
								}

							}
, 							{
								"patchline" : 								{
									"destination" : [ "obj-13", 1 ],
									"source" : [ "obj-26", 0 ]
								}

							}
, 							{
								"patchline" : 								{
									"destination" : [ "obj-36", 0 ],
									"source" : [ "obj-26", 1 ]
								}

							}
, 							{
								"patchline" : 								{
									"destination" : [ "obj-307", 0 ],
									"midpoints" : [ 400.777710000000013, 241.0, 203.349547999999999, 241.0 ],
									"source" : [ "obj-304", 0 ]
								}

							}
, 							{
								"patchline" : 								{
									"destination" : [ "obj-37", 0 ],
									"source" : [ "obj-307", 0 ]
								}

							}
, 							{
								"patchline" : 								{
									"destination" : [ "obj-307", 0 ],
									"source" : [ "obj-308", 0 ]
								}

							}
, 							{
								"patchline" : 								{
									"destination" : [ "obj-42", 0 ],
									"order" : 0,
									"source" : [ "obj-33", 0 ]
								}

							}
, 							{
								"patchline" : 								{
									"destination" : [ "obj-49", 0 ],
									"order" : 1,
									"source" : [ "obj-33", 0 ]
								}

							}
, 							{
								"patchline" : 								{
									"destination" : [ "obj-308", 0 ],
									"midpoints" : [ 102.0, 208.499268000000001, 203.349547999999999, 208.499268000000001 ],
									"source" : [ "obj-36", 0 ]
								}

							}
, 							{
								"patchline" : 								{
									"destination" : [ "obj-13", 2 ],
									"midpoints" : [ 203.349547999999999, 309.499267999999972, 94.666626000000008, 309.499267999999972 ],
									"source" : [ "obj-37", 0 ]
								}

							}
, 							{
								"patchline" : 								{
									"destination" : [ "obj-42", 1 ],
									"source" : [ "obj-40", 0 ]
								}

							}
, 							{
								"patchline" : 								{
									"destination" : [ "obj-308", 0 ],
									"source" : [ "obj-42", 0 ]
								}

							}
, 							{
								"patchline" : 								{
									"destination" : [ "obj-13", 0 ],
									"order" : 1,
									"source" : [ "obj-49", 0 ]
								}

							}
, 							{
								"patchline" : 								{
									"destination" : [ "obj-26", 0 ],
									"order" : 0,
									"source" : [ "obj-49", 0 ]
								}

							}
, 							{
								"patchline" : 								{
									"destination" : [ "obj-304", 0 ],
									"source" : [ "obj-50", 0 ]
								}

							}
 ]
					}
,
					"patching_rect" : [ 272.39996337890625, 570.0, 249.833251953125, 22.0 ],
					"saved_object_attributes" : 					{
						"description" : "",
						"digest" : "",
						"globalpatchername" : "",
						"tags" : ""
					}
,
					"text" : "p slice"
				}

			}
, 			{
				"box" : 				{
					"bgcolor" : [ 0.0, 0.368627450980392, 0.113725490196078, 1.0 ],
					"bgoncolor" : [ 0.4, 0.847058823529412, 0.133333333333333, 1.0 ],
					"fontface" : 1,
					"fontsize" : 10.0,
					"id" : "obj-154",
					"maxclass" : "textbutton",
					"mode" : 1,
					"numinlets" : 1,
					"numoutlets" : 3,
					"outlettype" : [ "", "", "int" ],
					"parameter_enable" : 0,
					"patching_rect" : [ 202.60003662109375, 91.891883850097656, 67.25, 18.5 ],
					"presentation" : 1,
					"presentation_rect" : [ 110.0, 15.0, 50.0, 45.0 ],
					"text" : "Play",
					"textcolor" : [ 0.588235294117647, 0.588235294117647, 0.588235294117647, 1.0 ],
					"texton" : "Play",
					"textoncolor" : [ 1.0, 1.0, 1.0, 1.0 ],
					"textovercolor" : [ 0.0, 0.0, 0.0, 1.0 ],
					"usebgoncolor" : 1,
					"varname" : "textbutton[2]"
				}

			}
, 			{
				"box" : 				{
					"fontname" : "Arial",
					"fontsize" : 12.0,
					"id" : "obj-19",
					"maxclass" : "newobj",
					"numinlets" : 1,
					"numoutlets" : 3,
					"outlettype" : [ "", "int", "int" ],
					"patching_rect" : [ 272.5833740234375, 644.0, 63.0, 22.0 ],
					"text" : "change 0."
				}

			}
, 			{
				"box" : 				{
					"fontname" : "Arial",
					"fontsize" : 12.0,
					"id" : "obj-43",
					"maxclass" : "newobj",
					"numinlets" : 1,
					"numoutlets" : 3,
					"outlettype" : [ "", "", "" ],
					"patching_rect" : [ 473.73321533203125, 511.0, 78.0, 22.0 ],
					"restore" : [ 0 ],
					"saved_object_attributes" : 					{
						"parameter_enable" : 0,
						"parameter_mappable" : 0
					}
,
					"text" : "pattr #1-slide",
					"varname" : "X-slide"
				}

			}
, 			{
				"box" : 				{
					"angle" : 0.0,
					"bgcolor" : [ 0.118382, 0.182384, 0.258946, 1.0 ],
					"border" : 1,
					"id" : "obj-140",
					"maxclass" : "panel",
					"mode" : 0,
					"numinlets" : 1,
					"numoutlets" : 0,
					"patching_rect" : [ 515.0, 404.0, 89.502883911132812, 23.064308166503906 ],
					"proportion" : 0.39,
					"shadow" : -2
				}

			}
, 			{
				"box" : 				{
					"id" : "obj-17",
					"maxclass" : "newobj",
					"numinlets" : 0,
					"numoutlets" : 1,
					"outlettype" : [ "" ],
					"patching_rect" : [ 31.0, -54.608123779296875, 66.0, 22.0 ],
					"text" : "r anal-data"
				}

			}
, 			{
				"box" : 				{
					"id" : "obj-11",
					"maxclass" : "newobj",
					"numinlets" : 2,
					"numoutlets" : 2,
					"outlettype" : [ "", "" ],
					"patching_rect" : [ 31.0, 2.0, 65.0, 22.0 ],
					"text" : "route bonk"
				}

			}
, 			{
				"box" : 				{
					"fontface" : 1,
					"fontsize" : 10.0,
					"id" : "obj-7",
					"maxclass" : "comment",
					"numinlets" : 1,
					"numoutlets" : 0,
					"patching_rect" : [ 480.116626739501953, -21.0, 53.599998474121094, 18.0 ],
					"presentation" : 1,
					"presentation_rect" : [ 207.5, 40.0, 23.0, 18.0 ],
					"text" : "ms",
					"textcolor" : [ 0.588235318660736, 0.588235318660736, 0.588235318660736, 1.0 ]
				}

			}
, 			{
				"box" : 				{
					"fontface" : 1,
					"fontsize" : 10.0,
					"id" : "obj-52",
					"maxclass" : "comment",
					"numinlets" : 1,
					"numoutlets" : 0,
					"patching_rect" : [ 480.866626739501953, 5.999999761581421, 53.599998474121094, 18.0 ],
					"presentation" : 1,
					"presentation_rect" : [ 267.0, 40.0, 17.0, 18.0 ],
					"text" : "%",
					"textcolor" : [ 0.588235318660736, 0.588235318660736, 0.588235318660736, 1.0 ]
				}

			}
, 			{
				"box" : 				{
					"bgcolor" : [ 0.058823529411765, 0.168627450980392, 0.474509803921569, 1.0 ],
					"fontface" : 1,
					"id" : "obj-172",
					"maxclass" : "number",
					"maximum" : 20,
					"minimum" : 0,
					"numinlets" : 1,
					"numoutlets" : 2,
					"outlettype" : [ "", "bang" ],
					"parameter_enable" : 0,
					"patching_rect" : [ 503.23321533203125, 538.09283447265625, 50.0, 22.0 ],
					"presentation" : 1,
					"presentation_rect" : [ 232.0, 35.0, 50.0, 22.0 ],
					"textcolor" : [ 0.968627450980392, 0.968627450980392, 0.968627450980392, 0.82 ],
					"triangle" : 0,
					"varname" : "number[10]"
				}

			}
, 			{
				"box" : 				{
					"bgcolor" : [ 0.058823529411765, 0.168627450980392, 0.474509803921569, 1.0 ],
					"fontface" : 1,
					"id" : "obj-173",
					"maxclass" : "number",
					"minimum" : 1,
					"numinlets" : 1,
					"numoutlets" : 2,
					"outlettype" : [ "", "bang" ],
					"parameter_enable" : 0,
					"patching_rect" : [ 334.0, 203.891921997070312, 50.0, 22.0 ],
					"presentation" : 1,
					"presentation_rect" : [ 165.0, 35.0, 62.5, 22.0 ],
					"textcolor" : [ 0.968627450980392, 0.968627450980392, 0.968627450980392, 0.82 ],
					"triangle" : 0,
					"varname" : "number[11]"
				}

			}
, 			{
				"box" : 				{
					"id" : "obj-9",
					"maxclass" : "comment",
					"numinlets" : 1,
					"numoutlets" : 0,
					"patching_rect" : [ 480.116626739501953, 52.0, 45.599998474121094, 20.0 ],
					"presentation" : 1,
					"presentation_rect" : [ 165.0, 9.999999046325684, 57.0, 20.0 ],
					"text" : "lenght",
					"textcolor" : [ 0.694117665290833, 0.694117665290833, 0.694117665290833, 1.0 ]
				}

			}
, 			{
				"box" : 				{
					"id" : "obj-15",
					"maxclass" : "comment",
					"numinlets" : 1,
					"numoutlets" : 0,
					"patching_rect" : [ 480.116626739501953, 77.0, 54.599998474121094, 20.0 ],
					"presentation" : 1,
					"presentation_rect" : [ 232.5, 10.0, 49.5, 20.0 ],
					"text" : "smooth",
					"textcolor" : [ 0.694117665290833, 0.694117665290833, 0.694117665290833, 1.0 ]
				}

			}
 ],
		"lines" : [ 			{
				"patchline" : 				{
					"destination" : [ "obj-207", 0 ],
					"source" : [ "obj-1", 0 ]
				}

			}
, 			{
				"patchline" : 				{
					"destination" : [ "obj-173", 0 ],
					"source" : [ "obj-10", 1 ]
				}

			}
, 			{
				"patchline" : 				{
					"destination" : [ "obj-97", 0 ],
					"source" : [ "obj-100", 0 ]
				}

			}
, 			{
				"patchline" : 				{
					"destination" : [ "obj-89", 0 ],
					"source" : [ "obj-104", 1 ]
				}

			}
, 			{
				"patchline" : 				{
					"destination" : [ "obj-1", 1 ],
					"source" : [ "obj-11", 0 ]
				}

			}
, 			{
				"patchline" : 				{
					"destination" : [ "obj-123", 0 ],
					"source" : [ "obj-113", 0 ]
				}

			}
, 			{
				"patchline" : 				{
					"destination" : [ "obj-11", 0 ],
					"source" : [ "obj-12", 0 ]
				}

			}
, 			{
				"patchline" : 				{
					"destination" : [ "obj-100", 0 ],
					"source" : [ "obj-123", 0 ]
				}

			}
, 			{
				"patchline" : 				{
					"destination" : [ "obj-97", 0 ],
					"source" : [ "obj-123", 1 ]
				}

			}
, 			{
				"patchline" : 				{
					"destination" : [ "obj-123", 0 ],
					"source" : [ "obj-126", 0 ]
				}

			}
, 			{
				"patchline" : 				{
					"destination" : [ "obj-128", 0 ],
					"source" : [ "obj-126", 1 ]
				}

			}
, 			{
				"patchline" : 				{
					"destination" : [ "obj-97", 0 ],
					"source" : [ "obj-128", 0 ]
				}

			}
, 			{
				"patchline" : 				{
					"destination" : [ "obj-2", 0 ],
					"source" : [ "obj-13", 1 ]
				}

			}
, 			{
				"patchline" : 				{
					"destination" : [ "obj-147", 0 ],
					"source" : [ "obj-146", 0 ]
				}

			}
, 			{
				"patchline" : 				{
					"destination" : [ "obj-146", 0 ],
					"source" : [ "obj-147", 0 ]
				}

			}
, 			{
				"patchline" : 				{
					"destination" : [ "obj-151", 0 ],
					"source" : [ "obj-149", 0 ]
				}

			}
, 			{
				"patchline" : 				{
					"destination" : [ "obj-156", 0 ],
					"midpoints" : [ 309.5, 389.726455700195288, 281.89996337890625, 389.726455700195288 ],
					"source" : [ "obj-151", 0 ]
				}

			}
, 			{
				"patchline" : 				{
					"destination" : [ "obj-126", 0 ],
					"source" : [ "obj-154", 0 ]
				}

			}
, 			{
				"patchline" : 				{
					"destination" : [ "obj-186", 0 ],
					"source" : [ "obj-156", 0 ]
				}

			}
, 			{
				"patchline" : 				{
					"destination" : [ "obj-12", 0 ],
					"source" : [ "obj-17", 0 ]
				}

			}
, 			{
				"patchline" : 				{
					"destination" : [ "obj-179", 0 ],
					"order" : 1,
					"source" : [ "obj-172", 0 ]
				}

			}
, 			{
				"patchline" : 				{
					"destination" : [ "obj-63", 2 ],
					"order" : 0,
					"source" : [ "obj-172", 0 ]
				}

			}
, 			{
				"patchline" : 				{
					"destination" : [ "obj-100", 1 ],
					"source" : [ "obj-173", 0 ]
				}

			}
, 			{
				"patchline" : 				{
					"destination" : [ "obj-63", 1 ],
					"source" : [ "obj-179", 0 ]
				}

			}
, 			{
				"patchline" : 				{
					"destination" : [ "obj-187", 0 ],
					"source" : [ "obj-181", 0 ]
				}

			}
, 			{
				"patchline" : 				{
					"destination" : [ "obj-63", 0 ],
					"source" : [ "obj-186", 0 ]
				}

			}
, 			{
				"patchline" : 				{
					"destination" : [ "obj-189", 0 ],
					"source" : [ "obj-187", 0 ]
				}

			}
, 			{
				"patchline" : 				{
					"destination" : [ "obj-190", 0 ],
					"source" : [ "obj-187", 1 ]
				}

			}
, 			{
				"patchline" : 				{
					"destination" : [ "obj-191", 0 ],
					"source" : [ "obj-189", 0 ]
				}

			}
, 			{
				"patchline" : 				{
					"destination" : [ "obj-41", 0 ],
					"source" : [ "obj-19", 0 ]
				}

			}
, 			{
				"patchline" : 				{
					"destination" : [ "obj-191", 0 ],
					"source" : [ "obj-190", 0 ]
				}

			}
, 			{
				"patchline" : 				{
					"destination" : [ "obj-186", 4 ],
					"source" : [ "obj-191", 1 ]
				}

			}
, 			{
				"patchline" : 				{
					"destination" : [ "obj-186", 3 ],
					"source" : [ "obj-191", 0 ]
				}

			}
, 			{
				"patchline" : 				{
					"destination" : [ "obj-113", 0 ],
					"order" : 0,
					"source" : [ "obj-192", 0 ]
				}

			}
, 			{
				"patchline" : 				{
					"destination" : [ "obj-211", 0 ],
					"order" : 1,
					"source" : [ "obj-192", 0 ]
				}

			}
, 			{
				"patchline" : 				{
					"destination" : [ "obj-192", 0 ],
					"source" : [ "obj-196", 1 ]
				}

			}
, 			{
				"patchline" : 				{
					"destination" : [ "obj-1", 0 ],
					"order" : 1,
					"source" : [ "obj-2", 0 ]
				}

			}
, 			{
				"patchline" : 				{
					"destination" : [ "obj-4", 0 ],
					"order" : 0,
					"source" : [ "obj-2", 0 ]
				}

			}
, 			{
				"patchline" : 				{
					"destination" : [ "obj-154", 0 ],
					"source" : [ "obj-207", 0 ]
				}

			}
, 			{
				"patchline" : 				{
					"destination" : [ "obj-210", 1 ],
					"source" : [ "obj-209", 0 ]
				}

			}
, 			{
				"patchline" : 				{
					"destination" : [ "obj-154", 0 ],
					"source" : [ "obj-210", 0 ]
				}

			}
, 			{
				"patchline" : 				{
					"destination" : [ "obj-210", 0 ],
					"source" : [ "obj-211", 0 ]
				}

			}
, 			{
				"patchline" : 				{
					"destination" : [ "obj-25", 0 ],
					"source" : [ "obj-24", 0 ]
				}

			}
, 			{
				"patchline" : 				{
					"destination" : [ "obj-35", 0 ],
					"source" : [ "obj-25", 0 ]
				}

			}
, 			{
				"patchline" : 				{
					"destination" : [ "obj-181", 0 ],
					"source" : [ "obj-26", 1 ]
				}

			}
, 			{
				"patchline" : 				{
					"destination" : [ "obj-5", 0 ],
					"source" : [ "obj-3", 1 ]
				}

			}
, 			{
				"patchline" : 				{
					"destination" : [ "obj-154", 0 ],
					"source" : [ "obj-35", 0 ]
				}

			}
, 			{
				"patchline" : 				{
					"destination" : [ "obj-172", 0 ],
					"source" : [ "obj-43", 1 ]
				}

			}
, 			{
				"patchline" : 				{
					"destination" : [ "obj-12", 1 ],
					"source" : [ "obj-5", 0 ]
				}

			}
, 			{
				"patchline" : 				{
					"destination" : [ "obj-156", 0 ],
					"source" : [ "obj-6", 1 ]
				}

			}
, 			{
				"patchline" : 				{
					"destination" : [ "obj-89", 0 ],
					"source" : [ "obj-63", 0 ]
				}

			}
, 			{
				"patchline" : 				{
					"destination" : [ "obj-19", 0 ],
					"source" : [ "obj-89", 0 ]
				}

			}
, 			{
				"patchline" : 				{
					"destination" : [ "obj-113", 1 ],
					"order" : 0,
					"source" : [ "obj-97", 1 ]
				}

			}
, 			{
				"patchline" : 				{
					"destination" : [ "obj-156", 0 ],
					"source" : [ "obj-97", 0 ]
				}

			}
, 			{
				"patchline" : 				{
					"destination" : [ "obj-209", 0 ],
					"order" : 1,
					"source" : [ "obj-97", 1 ]
				}

			}
 ]
	}

}
